<svg width="164" height="219" viewBox="0 0 164 219" fill="none" xmlns="http://www.w3.org/2000/svg">
<path d="M78.7057 1.06272C60.6392 1.86413 43.7215 9.35554 31.7294 21.847C23.0617 30.8716 17.6313 41.7951 16.0301 53.4851C15.5775 56.6733 15.4905 60.8198 15.4905 78.7817V97.7367H8.18038H0.852848L0.435127 98.1723L0 98.5904V158.278V217.965L0.435127 218.383L0.852848 218.819H81.943H163.033L163.399 218.418L163.782 218.017V158.295V98.5904L163.347 98.1723L162.929 97.7367H155.601H148.291V78.9559C148.291 60.4365 148.187 56.1681 147.682 52.8405C145.907 40.9937 140.581 30.4012 131.93 21.5334C126.396 15.8365 120.652 11.6901 113.411 8.11858C105.144 4.04186 95.0839 1.46343 86.1551 1.13241C84.7627 1.08015 83.1962 1.01046 82.674 0.975614C82.1519 0.958192 80.3592 0.993036 78.7057 1.06272ZM86.5206 21.6031C96.2848 22.5613 105.109 26.0457 112.176 31.7601C113.812 33.0667 117.084 36.3594 118.372 37.9797C122.636 43.3282 125.421 49.9485 126.187 56.534C126.291 57.5096 126.361 65.5062 126.361 77.928V97.7367L82.0301 97.7019L37.682 97.6496V77.8758C37.682 56.0984 37.682 56.2901 38.7959 51.8998C42.3117 37.9623 54.2168 26.8297 69.7595 22.9272C72.0222 22.3697 75.9557 21.7076 77.9747 21.5508C79.8196 21.4115 84.8671 21.4463 86.5206 21.6031Z" fill="black"/>
</svg>
