<svg width="178" height="200" viewBox="0 0 178 200" fill="none" xmlns="http://www.w3.org/2000/svg">
<path d="M140.194 61.125C143.767 58.5873 147.201 55.7593 150.345 52.6157C156.935 46.0255 161.341 37.9202 162.755 29.7897C164.308 20.8765 162.036 12.5945 156.519 7.08996C152.125 2.69646 146.166 0.36084 139.285 0.36084C129.501 0.36084 119.174 5.05734 110.98 13.251C97.8628 26.3683 90.2246 44.46 86.1089 57.388C83.0663 44.4095 76.9936 26.886 65.1893 15.0816C58.8641 8.75647 50.7715 5.49921 43.1208 5.49921C36.8714 5.49921 30.9376 7.67071 26.4936 12.1021C16.6335 21.9622 17.9718 39.2837 29.4731 50.7851C33.5763 54.8882 38.3738 58.297 43.4238 61.125H0.612381V111.625H13.2374V200H164.737V111.625H177.362V61.125H140.182H140.194ZM121.017 23.2878C126.484 17.8212 133.314 14.5513 139.273 14.5513C141.381 14.5513 144.348 14.9932 146.469 17.1142C151.607 22.2526 148.716 34.1453 140.295 42.5662C131.622 51.2396 119.969 57.1986 109.831 61.125H99.8323C103.494 49.7751 110.096 34.2085 121.017 23.2878V23.2878ZM34.1444 29.7392C34.0055 27.9338 34.1318 24.563 36.5558 22.1516C38.5758 20.1316 41.2523 19.7023 43.1334 19.7023C47.3249 19.7023 51.7058 21.6845 55.1524 25.1185C61.831 31.7971 67.3355 42.4273 71.0599 55.873C71.1609 56.2391 71.2619 56.5926 71.3503 56.9587C70.9968 56.8577 70.6306 56.7693 70.2645 56.6683C56.8315 52.944 46.2013 47.4395 39.51 40.7608C36.3916 37.6425 34.4221 33.6277 34.1318 29.7518L34.1444 29.7392ZM76.375 187.375H25.875V105.312H76.375V187.375ZM76.375 99H13.25V73.75H76.375V99ZM152.125 187.375H101.625V105.312H152.125V187.375ZM164.75 99H101.625V73.75H164.75V99Z" fill="black"/>
</svg>
